<?xml version="1.0" encoding="iso-8859-1"?>
<!-- Generator: Adobe Illustrator 19.0.0, SVG Export Plug-In . SVG Version: 6.00 Build 0)  -->
<svg version="1.1" id="Capa_1" xmlns="http://www.w3.org/2000/svg" xmlns:xlink="http://www.w3.org/1999/xlink" x="0px" y="0px"
	 viewBox="0 0 512 512" style="enable-background:new 0 0 512 512;" xml:space="preserve">
<g>
	<g>
		<path d="M256,118.62c-75.748,0-137.38,61.631-137.38,137.38S180.252,393.38,256,393.38S393.38,331.748,393.38,256
			S331.748,118.62,256,118.62z"/>
	</g>
</g>
<g>
	<g>
		<path d="M512,187.405l-64.733-41.831l-3.862-76.979l-76.979-3.862L324.595,0L256,35.138L187.405,0l-41.831,64.733l-76.979,3.862
			l-3.862,76.979L0,187.405L35.138,256L0,324.595l64.733,41.831l3.862,76.979l76.979,3.862L187.405,512L256,476.862L324.595,512
			l41.831-64.733l76.979-3.862l3.862-76.979L512,324.595L476.862,256L512,187.405z M256,423.395
			c-92.297,0-167.395-75.098-167.395-167.395S163.703,88.605,256,88.605S423.395,163.703,423.395,256S348.297,423.395,256,423.395z"
			/>
	</g>
</g>
<g>
</g>
<g>
</g>
<g>
</g>
<g>
</g>
<g>
</g>
<g>
</g>
<g>
</g>
<g>
</g>
<g>
</g>
<g>
</g>
<g>
</g>
<g>
</g>
<g>
</g>
<g>
</g>
<g>
</g>
</svg>
