<svg id="Layer_3" enable-background="new 0 0 64 64" height="512" viewBox="0 0 64 64" width="512" xmlns="http://www.w3.org/2000/svg"><path d="m5 9c.271 0 .534.054.783.159.352.15.755.086 1.043-.163.288-.247.411-.638.317-1.006-.098-.378-.143-.692-.143-.99 0-2.206 1.794-4 4-4 2.081 0 3.784 1.575 3.961 3.663.028.344.233.648.54.806.307.157.673.146.97-.032.483-.29.998-.437 1.529-.437 1.654 0 3 1.346 3 3s-1.346 3-3 3h-13c-1.103 0-2-.897-2-2s.897-2 2-2z"/><path d="m16 61h-11c-1.103 0-2-.897-2-2s.897-2 2-2c.271 0 .534.054.783.159.352.15.755.085 1.043-.163s.411-.639.316-1.007c-.097-.377-.142-.691-.142-.989 0-2.206 1.794-4 4-4 2.081 0 3.784 1.575 3.961 3.663.028.344.233.648.54.806.307.157.673.146.97-.032.483-.29.998-.437 1.529-.437 1.654 0 3 1.346 3 3s-1.346 3-3 3zm12 0h-6.026c.635-.838 1.026-1.87 1.026-3 0-2.757-2.243-5-5-5-.158 0-.316.017-.473.033.696-1.223 2.007-2.033 3.473-2.033 2.081 0 3.784 1.575 3.961 3.663.028.344.233.648.54.806.307.157.673.146.97-.032.483-.29.998-.437 1.529-.437 1.654 0 3 1.346 3 3s-1.346 3-3 3z"/><path d="m45 9c.271 0 .534.054.783.159.352.15.756.086 1.043-.163.288-.248.411-.639.316-1.007-.097-.377-.142-.691-.142-.989 0-2.206 1.794-4 4-4 2.081 0 3.784 1.575 3.961 3.663.028.344.233.648.54.806.307.157.673.146.97-.032.483-.29.998-.437 1.529-.437 1.654 0 3 1.346 3 3s-1.346 3-3 3h-13c-1.103 0-2-.897-2-2s.897-2 2-2z"/><path d="m55 41h-46c-3.309 0-6-2.691-6-6s2.691-6 6-6c0 .76.096 1.516.283 2.249l1.938-.497c-.147-.571-.221-1.16-.221-1.752 0-3.86 3.141-7 7-7 2.007 0 3.921.864 5.25 2.371l1.5-1.323c-.733-.831-1.61-1.499-2.571-2.003 1.862-3.701 5.62-6.045 9.821-6.045 4.182 0 7.958 2.35 9.82 6.044-.96.504-1.837 1.172-2.57 2.003l1.5 1.323c1.329-1.506 3.243-2.37 5.25-2.37 3.859 0 7 3.14 7 7 0 .592-.074 1.181-.221 1.751l1.938.497c.187-.732.283-1.488.283-2.248 3.309 0 6 2.691 6 6s-2.691 6-6 6z"/><path d="m38 51.031c-.912-1.225-2.359-2.031-4-2.031v2c1.654 0 3 1.346 3 3h-2v2h6v-2h-2c0-1.654 1.346-3 3-3v-2c-1.641 0-3.088.806-4 2.031z"/><path d="m49 58.031c-.912-1.225-2.359-2.031-4-2.031v2c1.654 0 3 1.346 3 3h-2v2h6v-2h-2c0-1.654 1.346-3 3-3v-2c-1.641 0-3.088.806-4 2.031z"/></svg>