<svg id="Capa_1" enable-background="new 0 0 512 512" height="512" viewBox="0 0 512 512" width="512" xmlns="http://www.w3.org/2000/svg"><g><g><ellipse cx="150.305" cy="150.303" fill="#f9ef63" rx="83.732" ry="83.732" transform="matrix(.16 -.987 .987 .16 -22.134 274.591)"/><path d="m110.285 223.867c12.235 6.67 26.317 10.38 41.284 10.159 45.886-.677 82.971-38.781 82.462-84.669-.255-22.999-9.792-43.763-25.029-58.747-18.822 19.513-30.878 45.596-32.388 74.473-.124 2.362-1.865 4.303-4.192 4.727-29.225 5.325-52.962 26.372-62.137 54.057z" fill="#f1cb86"/><g><g><path d="m418.91 147.733c-16.364-44.327-58.991-75.933-109.002-75.933-63.462 0-115.029 50.894-116.133 114.092-39.653 5.16-70.277 39.064-70.277 80.124 0 44.628 36.178 80.806 80.806 80.806h208.041c55.038 0 99.655-44.617 99.655-99.655 0-52.831-41.113-96.053-93.09-99.434z" fill="#f9f6f6"/></g></g><g><path d="m418.91 147.733c-16.364-44.327-58.991-75.933-109.002-75.933-22.291 0-43.11 6.286-60.795 17.172 13.166-5.18 27.504-8.029 42.509-8.029 48.928 0 90.787 30.252 107.902 73.071.69 1.727 2.302 2.93 4.154 3.107 50.524 4.84 90.036 47.396 90.036 99.189 0 35.376-18.435 66.444-46.22 84.129 37.692-14.212 64.506-50.608 64.506-93.272 0-52.831-41.114-96.053-93.09-99.434z" fill="#dfeaef"/></g><path d="m278.789 508.662 84.944-125.006c2.292-3.372-.124-7.934-4.201-7.934h-37.88l34.053-72.523c1.582-3.368-.876-7.238-4.598-7.238h-50.883c-2.108 0-3.997 1.302-4.747 3.273l-39.821 104.622c-1.265 3.324 1.19 6.886 4.747 6.886h31.08c3.526 0 5.979 3.504 4.773 6.817l-30.706 84.327c-3.02 8.293 8.279 14.075 13.239 6.776z" fill="#f9ef63"/><g fill="#f1cb86"><path d="m321.651 375.722 34.054-72.523c1.582-3.368-.876-7.238-4.598-7.238h-10.289l-34.054 72.523c-1.582 3.368.876 7.238 4.598 7.238z"/><path d="m350.838 375.722-84.778 124.762-.511 1.403c-3.02 8.292 8.279 14.075 13.239 6.775l84.944-125.006c2.292-3.372-.124-7.934-4.201-7.934z"/></g></g><g fill="#f9ef63"><path d="m44.046 149.806c0-4.216-3.417-7.634-7.634-7.634h-28.778c-4.217 0-7.634 3.418-7.634 7.634s3.417 7.634 7.634 7.634h28.778c4.217 0 7.634-3.418 7.634-7.634z"/><path d="m149.802 44.05c4.217 0 7.634-3.418 7.634-7.634v-28.779c0-4.216-3.417-7.634-7.634-7.634s-7.634 3.418-7.634 7.634v28.779c0 4.216 3.418 7.634 7.634 7.634z"/><path d="m230.184 77.345c1.953 0 3.907-.745 5.398-2.236l20.35-20.35c2.981-2.981 2.981-7.815 0-10.796s-7.814-2.982-10.797 0l-20.35 20.35c-2.981 2.981-2.981 7.814 0 10.796 1.492 1.491 3.445 2.236 5.399 2.236z"/><path d="m64.022 225.077-20.35 20.35c-2.981 2.981-2.981 7.815 0 10.796 2.388 2.202 6.833 3.462 10.797 0l20.35-20.35c2.981-2.981 2.981-7.815 0-10.796-2.982-2.98-7.815-2.98-10.797 0z"/><path d="m64.022 75.109c1.491 1.491 3.445 2.236 5.398 2.236s3.908-.745 5.399-2.236c2.981-2.982 2.981-7.815 0-10.796l-20.35-20.35c-2.982-2.981-7.815-2.981-10.797 0-2.981 2.981-2.981 7.815 0 10.796z"/></g></g></svg>