<svg id="Capa_1" enable-background="new 0 0 512 512" height="512" viewBox="0 0 512 512" width="512" xmlns="http://www.w3.org/2000/svg"><g><g><circle cx="147.957" cy="147.957" fill="#f9ef63" r="82.423"/><path d="m108.562 220.371c12.044 6.566 25.906 10.218 40.639 10 45.169-.667 81.674-38.175 81.174-83.346-.251-22.639-9.639-43.079-24.638-57.829-18.527 19.208-30.396 44.883-31.882 73.309-.122 2.325-1.835 4.236-4.126 4.653-28.77 5.243-52.136 25.961-61.167 53.213z" fill="#f1cb86"/><g><path d="m412.365 145.427c-16.109-43.634-58.069-74.747-107.299-74.747-62.47 0-113.232 50.099-114.319 112.31-39.033 5.08-69.179 38.454-69.179 78.872 0 43.931 35.613 79.543 79.543 79.543h204.79c54.178 0 98.098-43.92 98.098-98.098.001-52.005-40.47-94.552-91.634-97.88z" fill="#f9f6f6"/></g><g><path d="m412.365 145.427c-16.109-43.634-58.069-74.747-107.299-74.747-21.943 0-42.437 6.188-59.845 16.904 12.96-5.099 27.074-7.904 41.845-7.904 48.163 0 89.369 29.78 106.216 71.929.68 1.7 2.266 2.884 4.089 3.059 49.734 4.765 88.629 46.657 88.629 97.639 0 34.823-18.147 65.406-45.498 82.814 37.104-13.989 63.498-49.816 63.498-91.814 0-52.005-40.471-94.552-91.635-97.88z" fill="#dfeaef"/></g><path d="m274.433 500.717 88.924-130.863h-46.731l36.867-78.515h-61.406l-43.005 112.988h44.989l-32.67 89.72c-2.973 8.163 8.15 13.855 13.032 6.67z" fill="#f9ef63"/><g fill="#f1cb86"><path d="m316.626 369.854 36.867-78.515h-18l-33.522 71.39c-1.557 3.316.863 7.125 4.526 7.125z"/><path d="m345.357 369.854-83.453 122.812-.503 1.381c-2.972 8.163 8.15 13.855 13.032 6.67l88.924-130.863z"/></g></g><g><path d="m43.358 147.467c0-4.15-3.364-7.515-7.515-7.515h-28.328c-4.151 0-7.515 3.365-7.515 7.515s3.364 7.515 7.515 7.515h28.329c4.15 0 7.514-3.365 7.514-7.515z"/><path d="m147.462 43.364c4.151 0 7.515-3.364 7.515-7.515v-28.329c0-4.15-3.364-7.515-7.515-7.515s-7.515 3.365-7.515 7.515v28.33c0 4.15 3.364 7.514 7.515 7.514z"/><path d="m226.588 76.139c1.923 0 3.846-.734 5.314-2.201l20.032-20.032c2.934-2.935 2.934-7.693 0-10.627-2.934-2.935-7.692-2.936-10.628 0l-20.032 20.032c-2.935 2.934-2.935 7.692 0 10.627 1.468 1.468 3.39 2.201 5.314 2.201z"/><path d="m63.021 221.563-20.032 20.032c-2.934 2.934-2.934 7.693 0 10.627 2.351 2.167 6.726 3.408 10.628 0l20.033-20.032c2.934-2.934 2.934-7.693 0-10.627-2.936-2.934-7.693-2.934-10.629 0z"/><path d="m63.021 73.938c1.468 1.467 3.391 2.201 5.314 2.201s3.846-.734 5.314-2.201c2.934-2.935 2.934-7.693 0-10.627l-20.032-20.032c-2.935-2.935-7.693-2.935-10.628 0-2.934 2.934-2.934 7.693 0 10.627z"/><path d="m502.352 199.092c-1.735-3.77-6.198-5.42-9.969-3.683-3.77 1.735-5.419 6.199-3.683 9.969 5.487 11.92 8.27 24.675 8.27 37.911 0 50.053-40.721 90.775-90.775 90.775h-64.235l18.526-39.456c1.093-2.327.92-5.052-.459-7.223-1.379-2.17-3.772-3.485-6.343-3.485h-61.526c-3.119 0-5.914 1.927-7.023 4.841l-17.25 45.322h-66.879c-39.803 0-72.185-32.382-72.185-72.184 0-36.147 26.985-66.917 62.77-71.574 3.695-.481 6.479-3.596 6.544-7.321.492-28.192 11.843-54.62 31.963-74.414 20.144-19.818 46.803-30.732 75.066-30.732 44.634 0 85.006 28.123 100.459 69.981 1.028 2.785 3.6 4.704 6.562 4.896 23.493 1.528 45.197 11.984 61.114 29.442 2.796 3.066 7.55 3.286 10.615.49 3.068-2.796 3.287-7.549.49-10.616-17.46-19.15-40.9-31.071-66.436-33.892-18.781-45.254-63.513-75.33-112.804-75.33-31.336 0-60.941 11.768-83.672 33.191-16.763-23.87-44.196-38.348-73.746-38.348-31.543 0-61.2 16.84-77.396 43.948-2.128 3.563-.966 8.177 2.597 10.305 3.561 2.128 8.177.967 10.305-2.597 13.498-22.592 38.211-36.627 64.494-36.627 25.68 0 49.449 13.121 63.209 34.565-16.233 19.634-25.84 43.655-27.578 69.206-25.249 5.187-46.288 21.259-58.41 42.82-31.058-9.812-52.29-38.44-52.29-71.521 0-4.308.367-8.625 1.091-12.833.704-4.09-2.042-7.976-6.132-8.68-4.087-.699-7.976 2.043-8.68 6.132-.868 5.046-1.308 10.221-1.308 15.381 0 20.431 7.031 40.44 19.799 56.341 10.74 13.376 25.182 23.436 41.289 28.933-3.197 9.07-4.944 18.786-4.944 28.854 0 48.09 39.124 87.214 87.214 87.214h61.158l-20.118 52.857c-1.292 3.605.495 9.624 7.023 10.188h34.343l-29.063 79.81c-2.61 7.169.426 14.894 7.217 18.369 2.216 1.135 4.566 1.679 6.875 1.679 4.764 0 9.355-2.321 12.243-6.57l37.188-54.727c2.333-3.433 1.441-8.107-1.992-10.439-3.431-2.333-8.106-1.441-10.438 1.992l-36.629 53.904 32.394-88.961c1.23-3.595-.589-9.534-7.061-10.086h-34.176l37.368-98.18h44.516l-31.911 67.96c-1.632 3.64-.024 10.079 6.802 10.708h32.63l-27.038 39.791c-2.333 3.433-1.441 8.107 1.992 10.439 3.431 2.332 8.107 1.441 10.438-1.992l35.015-51.529c1.565-2.302 1.728-5.28.426-7.74s-3.857-3.998-6.641-3.998h-34.991l6.327-13.475h71.293c58.34 0 105.804-47.464 105.804-105.804 0-15.423-3.246-30.292-9.648-44.197z"/></g></g></svg>